<?xml version="1.0" standalone="no"?>
<!DOCTYPE svg PUBLIC "-//W3C//DTD SVG 20010904//EN"
 "http://www.w3.org/TR/2001/REC-SVG-20010904/DTD/svg10.dtd">
<svg version="1.0" xmlns="http://www.w3.org/2000/svg"
 width="5209.000000pt" height="3126.000000pt" viewBox="0 0 5209.000000 3126.000000"
 preserveAspectRatio="xMidYMid meet">

<g transform="translate(0.000000,3126.000000) scale(0.100000,-0.100000)"
fill="#000000" stroke="none">
<path d="M22005 27519 c-829 -67 -1584 -277 -2261 -629 -1290 -670 -2158
-1794 -2349 -3039 -14 -91 -29 -213 -33 -270 l-7 -104 -60 -17 c-317 -91 -546
-303 -598 -555 -41 -198 31 -416 187 -563 110 -104 291 -200 439 -233 32 -7
60 -15 62 -19 2 -4 -5 -35 -15 -69 -34 -108 -24 -235 26 -334 13 -28 23 -51
22 -52 -2 -2 -46 -23 -98 -47 -193 -91 -310 -211 -358 -368 -43 -140 1 -314
110 -435 l45 -49 -68 -63 c-70 -67 -174 -213 -229 -321 -76 -154 -128 -363
-134 -547 -9 -237 39 -475 131 -660 101 -202 269 -377 451 -469 46 -24 52 -30
52 -59 0 -41 32 -183 59 -267 37 -111 137 -300 211 -400 196 -261 466 -470
780 -602 133 -57 143 -61 155 -63 6 -2 39 -12 75 -23 97 -30 281 -69 395 -84
81 -10 740 -13 3465 -13 3226 0 3370 1 3485 19 323 49 638 163 851 307 85 57
110 89 125 158 17 79 -7 137 -82 204 -112 97 -164 215 -157 352 3 68 10 95 36
147 39 80 120 159 199 196 54 25 71 27 258 33 153 6 219 12 280 28 99 26 209
78 289 135 79 56 201 183 256 266 24 36 48 68 54 72 6 4 8 8 3 8 -4 0 9 32 28
71 87 172 131 383 128 614 -1 77 -8 175 -15 218 l-14 77 285 0 c253 0 296 2
371 20 166 40 332 143 439 272 73 88 145 240 166 353 23 120 16 300 -15 400
-97 307 -347 525 -660 575 -39 6 -303 10 -662 10 l-597 0 16 43 c25 65 23 227
-4 294 l-21 53 42 10 c373 96 601 298 657 580 14 74 7 228 -14 285 -34 94 -83
179 -137 238 -104 113 -265 209 -432 258 -74 21 -78 24 -78 51 l0 28 1599 0
c1083 0 1624 3 1677 11 180 25 328 101 464 238 78 78 105 113 143 187 73 142
106 324 88 475 -42 332 -269 601 -592 701 l-74 23 -1910 3 -1910 3 -92 142
-92 142 922 5 c907 6 923 6 999 27 164 46 316 143 421 269 177 210 234 520
144 782 -90 264 -277 443 -552 529 l-90 28 -2015 5 -2015 5 -90 36 c-418 168
-1067 319 -1530 354 -44 4 -91 9 -105 12 -46 9 -813 12 -925 2z m1010 -423
c523 -57 990 -168 1440 -343 l140 -54 1980 1 c1232 0 2002 -3 2038 -10 275
-45 424 -330 303 -575 -43 -87 -103 -145 -194 -188 l-67 -32 -1359 -5 -1358
-5 183 -205 c100 -113 220 -252 266 -310 106 -132 252 -351 333 -497 l62 -113
2012 -2 2011 -3 67 -32 c199 -94 285 -330 193 -531 -34 -75 -115 -156 -194
-195 l-66 -32 -1865 -5 c-1650 -4 -1865 -7 -1863 -20 9 -72 43 -363 46 -392
l3 -38 -4678 0 -4678 0 6 58 c77 775 385 1439 952 2051 266 287 661 596 1037
812 634 363 1428 607 2180 669 72 5 148 12 170 14 105 10 759 -3 900 -18z
m3885 -5054 c167 -52 272 -145 216 -191 -10 -8 -1236 -10 -4671 -9 -4368 3
-4658 4 -4669 20 -39 62 106 159 289 193 57 11 880 13 4415 12 l4345 -2 75
-23z m1910 -788 c80 -38 133 -83 176 -150 152 -237 20 -555 -254 -613 -37 -8
-352 -11 -1058 -11 l-1006 0 -651 -443 c-359 -244 -680 -463 -714 -486 l-63
-42 -1032 703 -1033 703 -2740 5 -2740 5 -88 28 c-149 46 -247 106 -247 151 0
61 168 144 345 172 63 9 1217 12 5560 11 l5480 -2 65 -31z m-11215 -763 c-9
-8 -36 -10 -30 -2 2 4 11 8 20 8 8 0 13 -3 10 -6z m85 -27 c0 -2 -9 0 -20 6
-11 6 -20 13 -20 16 0 2 9 0 20 -6 11 -6 20 -13 20 -16z m5384 5 c-3 -5 -10
-7 -15 -3 -5 3 -7 10 -3 15 3 5 10 7 15 3 5 -3 7 -10 3 -15z m-5529 1 c3 -6
-1 -7 -9 -4 -18 7 -21 14 -7 14 6 0 13 -4 16 -10z m-39 -22 c4 -7 4 -10 -1 -6
-4 4 -15 2 -24 -5 -14 -11 -14 -10 -2 6 16 20 18 21 27 5z m5614 -22 c-13 -13
-35 7 -25 24 5 8 11 8 21 -1 10 -8 12 -15 4 -23z m-5662 -8 c-2 -7 2 -14 7
-14 6 -1 9 1 8 5 -3 10 35 7 44 -4 5 -4 3 -5 -4 -2 -6 4 -19 0 -28 -9 -12 -12
-19 -14 -28 -5 -14 14 -18 41 -6 41 6 0 9 -6 7 -12z m-32 -24 c2 -12 -1 -13
-12 -3 -7 6 -11 16 -8 21 7 11 17 3 20 -18z m5678 2 c-3 -9 -12 -12 -22 -9
-15 6 -9 11 25 22 1 1 0 -5 -3 -13z m232 -89 c28 -23 33 -31 23 -43 -6 -7 -15
-12 -19 -9 -4 3 -11 -2 -14 -11 -3 -8 -11 -12 -17 -8 -9 5 -6 11 6 21 11 7 15
13 11 13 -5 0 -3 6 3 14 9 10 6 17 -13 29 -22 15 -71 13 -61 -2 2 -4 -2 -8
-10 -8 -10 0 -12 4 -5 12 5 7 8 14 6 16 -2 2 9 4 25 4 17 0 44 -12 65 -28z
m-6059 -109 c14 -17 13 -49 -1 -40 -6 4 -14 7 -18 8 -5 1 -11 2 -14 3 -3 0 -2
6 1 11 5 8 11 7 21 -1 9 -8 14 -8 14 -1 0 6 -8 16 -17 21 -10 6 -13 11 -7 11
6 0 16 -6 21 -12z m6243 -51 c0 -1 -12 -3 -28 -3 -15 -1 -21 1 -14 3 6 3 9 9
6 15 -4 6 2 5 15 -1 11 -7 21 -13 21 -14z m27 6 c-4 -3 -2 -11 3 -18 7 -8 5
-12 -4 -12 -8 0 -12 7 -11 16 5 22 4 21 12 21 3 0 3 -3 0 -7z m80 -56 c-1 -7
4 -11 11 -9 8 1 11 -2 7 -8 -5 -8 -11 -7 -21 1 -12 10 -17 7 -16 -11 0 -3 -10
-5 -23 -5 -13 0 -21 4 -17 9 3 5 -2 7 -11 3 -21 -8 -33 11 -18 26 9 9 11 8 7
-3 -8 -20 48 -24 64 -5 15 18 -1 20 -17 4 -10 -10 -12 0 -4 29 3 9 40 -21 38
-31z m-6420 -16 c1 -11 -5 -25 -13 -32 -8 -6 -14 -8 -14 -3 0 4 -7 -1 -16 -12
-14 -18 -15 -18 -4 4 6 12 15 20 21 17 5 -4 10 -1 10 4 1 6 3 16 4 21 1 6 3
12 4 15 3 11 7 4 8 -14z m10548 -19 c-3 -3 0 -11 6 -18 6 -8 6 -14 0 -18 -5
-4 -13 -1 -18 6 -13 21 -12 35 3 35 8 0 12 -3 9 -5z m-8088 -8 c-3 -3 -12 -4
-19 -1 -8 3 -5 6 6 6 11 1 17 -2 13 -5z m-124 -18 c4 -10 1 -13 -8 -9 -8 3
-12 9 -9 14 7 12 11 11 17 -5z m53 -15 c1 -6 0 -7 -3 -1 -2 5 -11 10 -18 10
-8 0 -17 4 -20 10 -4 6 2 7 16 1 13 -4 24 -13 25 -20z m7209 1 c1 -11 -2 -19
-7 -16 -5 4 -7 12 -4 19 3 8 1 16 -5 19 -5 2 -4 3 2 2 7 -1 13 -12 14 -24z
m907 21 c-6 -2 -9 -10 -6 -15 4 -7 2 -8 -5 -4 -13 9 -5 26 12 25 9 0 8 -2 -1
-6z m-10505 -28 c0 -8 -4 -12 -9 -9 -5 3 -6 10 -3 15 9 13 12 11 12 -6z m6512
-8 c0 -9 -2 -8 -6 1 -2 6 -10 9 -15 6 -7 -4 -8 -2 -4 5 9 13 26 5 25 -12z
m3061 11 c0 -4 -4 -8 -9 -8 -6 0 -12 4 -15 8 -3 5 1 9 9 9 8 0 15 -4 15 -9z
m-9611 -21 c8 -10 7 -14 -4 -14 -8 0 -12 4 -9 8 2 4 -2 10 -8 12 -8 4 -9 6 -2
6 6 1 17 -5 23 -12z m2161 3 c0 -5 -2 -10 -4 -10 -3 0 -8 5 -11 10 -3 6 -1 10
4 10 6 0 11 -4 11 -10z m4451 -13 c-8 -8 -14 -7 -23 2 -11 10 -9 11 6 5 15 -6
17 -4 11 6 -6 9 -4 11 4 5 9 -5 10 -10 2 -18z m2975 11 c4 -7 3 -8 -4 -4 -7 4
-12 2 -12 -5 0 -7 -3 -10 -6 -6 -6 5 3 27 11 27 2 0 7 -5 11 -12z m997 -9 c-8
-8 -13 -7 -18 2 -5 8 -4 10 3 5 7 -4 12 -2 12 5 0 7 3 9 7 6 4 -4 2 -12 -4
-18z m-8069 -15 c3 -8 2 -12 -4 -9 -6 3 -10 10 -10 16 0 14 7 11 14 -7z
m-1748 -16 c19 -23 19 -23 -2 -5 -11 9 -24 14 -29 10 -4 -5 -5 -2 -1 5 9 16
10 16 32 -10z m185 9 c-6 -8 -8 -17 -4 -21 4 -4 0 -4 -10 0 -17 6 -17 7 0 20
23 17 28 18 14 1z m116 6 c-4 -3 -2 -12 4 -19 14 -17 4 -33 -21 -31 -10 1 -17
5 -14 9 3 4 11 5 19 1 17 -6 21 12 5 22 -10 6 -5 25 7 25 4 0 3 -3 0 -7z
m1518 -3 c3 -6 -1 -7 -9 -4 -18 7 -21 14 -7 14 6 0 13 -4 16 -10z m1107 -5 c3
0 10 -4 15 -9 5 -5 3 -6 -4 -2 -8 4 -13 2 -13 -6 0 -10 -2 -10 -9 1 -7 11 -11
10 -21 -5 -10 -16 -11 -16 -6 -1 3 10 0 17 -7 17 -8 0 -7 4 3 9 8 6 19 7 25 3
5 -4 13 -7 17 -7z m1592 7 c3 -5 -1 -9 -9 -9 -8 0 -15 4 -15 9 0 4 4 8 9 8 6
0 12 -4 15 -8z m336 5 c0 -2 -9 -12 -20 -22 -24 -21 -27 -14 -4 9 15 15 24 20
24 13z m3933 -21 c3 3 4 -1 3 -10 -1 -8 -5 -18 -9 -21 -4 -3 -5 -2 -2 2 3 3
-5 18 -17 32 -20 22 -20 23 -2 8 11 -9 23 -14 27 -11z m-8872 5 c-7 -5 -11
-13 -7 -19 3 -5 -2 -16 -12 -23 -15 -12 -16 -12 -5 2 7 9 10 19 7 22 -8 8 5
27 19 27 8 0 7 -3 -2 -9z m3404 0 c3 -5 0 -13 -6 -17 -7 -4 -9 -3 -5 4 3 5 0
13 -6 15 -9 4 -10 6 -1 6 6 1 14 -3 18 -8z m1240 -1 c4 -6 11 -7 17 -4 7 4 8
2 4 -5 -6 -9 -12 -9 -24 1 -10 7 -19 14 -21 15 -2 2 1 3 7 3 6 0 14 -5 17 -10z
m4166 -7 c-7 -13 -5 -23 7 -38 16 -19 16 -19 0 -6 -10 7 -18 9 -18 4 0 -5 -7
-10 -16 -10 -15 0 -15 1 0 12 8 7 13 15 9 18 -3 4 0 13 7 22 17 20 23 19 11
-2z m-8848 -6 c3 -7 -3 -13 -14 -13 -13 0 -15 3 -7 13 6 7 12 13 13 13 2 0 5
-6 8 -13z m2032 4 c3 -5 -8 -16 -25 -24 -20 -11 -32 -12 -36 -5 -4 7 -2 8 4 4
7 -4 12 -2 12 3 0 6 9 11 21 11 11 0 17 5 14 10 -3 6 -4 10 -1 10 3 0 7 -4 11
-9z m935 -1 c0 -5 -7 -7 -15 -4 -8 4 -15 8 -15 10 0 2 7 4 15 4 8 0 15 -4 15
-10z m534 -11 c-8 -14 -21 -11 -21 5 0 8 6 12 14 9 7 -3 10 -9 7 -14z m2535
-5 c-6 -8 -17 -14 -23 -14 -6 0 -3 5 7 11 9 6 14 15 11 21 -4 7 -2 8 5 4 9 -6
9 -11 0 -22z m3938 9 c-4 -3 -1 -13 6 -22 11 -14 10 -14 -5 -2 -16 12 -16 31
-1 31 4 0 3 -3 0 -7z m-6454 -18 c-3 -9 -8 -14 -10 -11 -3 3 -2 9 2 15 9 16
15 13 8 -4z m35 -20 c-3 -3 -9 2 -12 12 -6 14 -5 15 5 6 7 -7 10 -15 7 -18z
m2533 8 c13 -16 12 -17 -3 -4 -17 13 -22 21 -14 21 2 0 10 -8 17 -17z m2702 2
c-3 -9 -8 -14 -10 -11 -3 3 -2 9 2 15 9 16 15 13 8 -4z m-2725 -26 c-3 -8 -7
-3 -11 10 -4 17 -3 21 5 13 5 -5 8 -16 6 -23z m-4010 8 c14 4 14 3 2 -5 -16
-12 -30 -7 -29 11 0 9 2 9 5 0 3 -7 13 -9 22 -6z m3968 1 c4 -7 3 -8 -4 -4 -7
4 -12 3 -12 -2 0 -6 -7 -12 -15 -16 -19 -7 -19 -1 1 18 18 19 21 19 30 4z
m-2426 -8 c0 -5 -2 -10 -4 -10 -3 0 -8 5 -11 10 -3 6 -1 10 4 10 6 0 11 -4 11
-10z m801 -7 c13 -16 12 -17 -3 -4 -17 13 -22 21 -14 21 2 0 10 -8 17 -17z
m61 5 c-9 -9 -9 -15 1 -27 11 -14 10 -14 -6 -2 -13 10 -15 17 -6 27 6 8 14 14
17 14 3 0 1 -5 -6 -12z m831 -3 c-3 -9 -8 -14 -10 -11 -3 3 -2 9 2 15 9 16 15
13 8 -4z m4548 -8 c-10 -9 -11 -8 -5 6 3 10 9 15 12 12 3 -3 0 -11 -7 -18z
m69 19 c0 -2 -7 -9 -15 -16 -13 -11 -14 -10 -9 4 5 14 24 23 24 12z m-7715
-15 c3 -5 2 -12 -3 -15 -5 -3 -9 1 -9 9 0 17 3 19 12 6z m1440 1 c-3 -3 0 -11
6 -19 17 -20 5 -16 -14 5 -15 16 -15 19 -2 19 8 0 13 -3 10 -5z m1635 4 c0 -2
-7 -7 -16 -10 -8 -3 -12 -2 -9 4 6 10 25 14 25 6z m-5500 -10 c0 -3 -4 -8 -10
-11 -5 -3 -10 -1 -10 4 0 6 5 11 10 11 6 0 10 -2 10 -4z m1365 -6 c3 -5 1 -10
-4 -10 -6 0 -11 5 -11 10 0 6 2 10 4 10 3 0 8 -4 11 -10z m1002 3 c-4 -3 -1
-13 6 -22 11 -14 10 -14 -5 -2 -16 12 -16 31 -1 31 4 0 3 -3 0 -7z m713 2 c0
-7 -30 -13 -34 -7 -3 4 4 9 15 9 10 1 19 0 19 -2z m3184 -3 c3 -5 -1 -9 -9 -9
-8 0 -12 4 -9 9 3 4 7 8 9 8 2 0 6 -4 9 -8z m-6294 -12 c0 -5 -5 -10 -11 -10
-5 0 -7 5 -4 10 3 6 8 10 11 10 2 0 4 -4 4 -10z m2968 -16 c-12 -12 -17 -13
-23 -3 -5 8 -4 10 4 5 6 -4 14 0 17 9 4 9 9 13 12 10 3 -3 -1 -13 -10 -21z
m86 18 c3 -5 -1 -9 -9 -9 -8 0 -12 4 -9 9 3 4 7 8 9 8 2 0 6 -4 9 -8z m5946
-2 c8 -5 11 -10 5 -10 -5 0 -17 5 -25 10 -8 5 -10 10 -5 10 6 0 17 -5 25 -10z
m-4292 -15 c3 -3 -1 -5 -9 -6 -8 0 -23 -2 -35 -3 -11 -1 -21 3 -21 10 0 12 53
11 65 -1z m857 -15 c8 0 17 -4 20 -10 7 -11 -23 -3 -41 11 -6 5 -14 6 -18 2
-4 -4 -4 1 0 11 6 16 8 17 16 2 5 -9 15 -16 23 -16z m-1591 12 c3 -5 -1 -9 -9
-9 -8 0 -12 4 -9 9 3 4 7 8 9 8 2 0 6 -4 9 -8z m-4319 -32 c3 -6 -1 -7 -9 -4
-18 7 -21 14 -7 14 6 0 13 -4 16 -10z m179 2 c3 -5 -1 -9 -9 -9 -8 0 -12 4 -9
9 3 4 7 8 9 8 2 0 6 -4 9 -8z m46 2 c0 -8 -19 -13 -24 -6 -3 5 1 9 9 9 8 0 15
-2 15 -3z m1214 -2 c2 -4 -5 -9 -17 -9 -17 -2 -19 0 -7 7 18 12 18 12 24 2z
m70 -4 c-3 -4 -11 -5 -19 -1 -21 7 -19 12 4 10 11 0 18 -5 15 -9z m71 2 c3 -5
1 -10 -4 -10 -6 0 -11 5 -11 10 0 6 2 10 4 10 3 0 8 -4 11 -10z m3065 -5 c-7
-8 -17 -15 -23 -15 -6 0 -2 7 9 15 25 19 30 19 14 0z m270 5 c8 -5 11 -10 5
-10 -5 0 -17 5 -25 10 -8 5 -10 10 -5 10 6 0 17 -5 25 -10z m1218 1 c11 -7 10
-9 -3 -14 -9 -4 -14 -3 -10 2 3 5 -1 12 -7 14 -7 3 -8 6 -3 6 6 0 16 -3 23 -8z
m325 -16 c-6 -16 -16 -19 -26 -8 -9 8 13 34 24 28 4 -3 6 -12 2 -20z m3052 16
c-8 -7 -45 -9 -50 -1 -2 3 9 6 25 6 17 0 27 -2 25 -5z m-5110 -11 c3 -6 -1 -7
-9 -4 -18 7 -21 14 -7 14 6 0 13 -4 16 -10z m381 1 c-6 -9 -46 -22 -46 -15 0
3 10 9 23 14 29 11 29 11 23 1z m1594 -2 c0 6 4 11 8 11 5 0 9 -6 9 -13 0 -7
-10 -13 -22 -13 -12 0 -22 6 -22 13 0 9 4 10 14 2 9 -8 13 -8 13 0z m3975 -7
c-3 -3 -11 0 -18 7 -9 10 -8 11 6 5 10 -3 15 -9 12 -12z m-5915 -2 c0 -5 -2
-10 -4 -10 -3 0 -8 5 -11 10 -3 6 -1 10 4 10 6 0 11 -4 11 -10z m403 3 c-7 -2
-21 -2 -30 0 -10 3 -4 5 12 5 17 0 24 -2 18 -5z m1197 3 c0 -3 -4 -8 -10 -11
-5 -3 -10 -1 -10 4 0 6 5 11 10 11 6 0 10 -2 10 -4z m3646 -7 c3 -6 1 -16 -5
-22 -9 -9 -10 -7 -5 7 6 16 4 18 -10 13 -10 -4 -15 -3 -11 3 8 13 22 13 31 -1z
m630 -4 c17 -16 14 -18 -10 -9 -9 3 -16 10 -16 15 0 13 9 11 26 -6z m-5723 -1
c3 -4 0 -13 -8 -20 -18 -18 -31 -18 -16 0 10 11 8 15 -6 19 -15 4 -15 5 3 6
11 0 23 -2 27 -5z m5177 2 c0 -3 -4 -8 -10 -11 -5 -3 -10 -1 -10 4 0 6 5 11
10 11 6 0 10 -2 10 -4z m-4950 -10 c0 -3 -4 -8 -10 -11 -5 -3 -10 -1 -10 4 0
6 5 11 10 11 6 0 10 -2 10 -4z m1310 -10 c-7 -7 -13 -7 -20 0 -6 6 -3 10 10
10 13 0 16 -4 10 -10z m125 4 c3 -5 2 -10 -4 -10 -5 0 -13 5 -16 10 -3 6 -2
10 4 10 5 0 13 -4 16 -10z m-1518 -16 c-3 -3 -12 -4 -19 -1 -8 3 -5 6 6 6 11
1 17 -2 13 -5z m5213 -29 c0 -2 -9 -3 -19 -2 -11 0 -18 5 -15 9 4 6 34 0 34
-7z m50 0 c5 3 10 1 10 -4 0 -17 -26 -13 -41 7 -13 15 -12 16 3 4 9 -8 22 -11
28 -7z m-105 -13 c-3 -3 -11 0 -18 7 -9 10 -8 11 6 5 10 -3 15 -9 12 -12z
m-725 -1131 c0 -4 -13 -37 -29 -72 -50 -111 -65 -190 -64 -334 0 -111 4 -143
27 -220 15 -49 42 -118 60 -152 l33 -62 -47 -20 c-132 -57 -336 -109 -510
-130 -57 -8 -1137 -11 -3382 -11 -3587 0 -3388 -3 -3626 55 -511 124 -922 462
-1051 864 -12 35 -21 68 -21 73 0 10 772 13 5098 16 1961 1 3512 -2 3512 -7z"/>
<path d="M23090 20440 c0 -5 5 -10 11 -10 5 0 7 5 4 10 -3 6 -8 10 -11 10 -2
0 -4 -4 -4 -10z"/>
<path d="M23326 20281 c-4 -5 -2 -12 3 -15 5 -4 12 -2 15 3 4 5 2 12 -3 15 -5
4 -12 2 -15 -3z"/>
<path d="M30700 27104 c-262 -40 -450 -149 -585 -339 -215 -303 -200 -727 37
-1002 105 -123 262 -221 423 -265 75 -21 102 -22 415 -22 315 0 340 1 415 22
303 84 528 312 592 599 23 105 23 295 0 382 -44 163 -102 265 -217 382 -135
137 -284 212 -474 238 -70 10 -547 13 -606 5z m583 -419 c89 -19 158 -57 215
-120 185 -205 125 -514 -125 -637 l-68 -33 -315 0 -315 0 -68 33 c-123 61
-204 169 -227 304 -37 211 116 421 333 457 91 15 493 12 570 -4z"/>
<path d="M30620 21684 c-174 -37 -289 -101 -421 -234 -86 -86 -103 -108 -147
-201 -69 -142 -86 -216 -86 -364 1 -140 25 -258 75 -357 102 -204 263 -344
480 -420 l94 -33 2043 -3 c2031 -2 2045 -2 2130 18 168 40 333 142 441 272 73
88 145 240 166 353 23 120 16 300 -15 400 -97 307 -348 525 -660 575 -43 6
-739 10 -2050 9 -1657 0 -1996 -3 -2050 -15z m4140 -430 c80 -38 133 -83 176
-150 152 -237 20 -555 -254 -613 -38 -8 -597 -11 -2000 -11 -2123 0 -2007 -3
-2107 55 -94 56 -172 166 -195 279 -32 158 50 336 195 421 95 57 -20 54 2135
52 l1985 -2 65 -31z"/>
<path d="M28975 18989 c-274 -40 -514 -220 -629 -471 -46 -100 -66 -185 -72
-303 -18 -332 164 -634 466 -773 171 -79 139 -77 1000 -77 764 0 765 0 845 23
198 56 363 172 474 335 101 148 153 364 131 544 -43 350 -278 617 -625 711
-52 14 -152 16 -795 18 -404 1 -762 -2 -795 -7z m1530 -423 c115 -43 191 -113
243 -223 24 -52 27 -69 27 -163 0 -99 -2 -110 -33 -172 -41 -84 -128 -167
-209 -200 l-58 -23 -745 0 -745 0 -68 32 c-162 77 -260 258 -229 423 33 178
163 311 332 339 30 5 365 8 745 7 648 -1 693 -3 740 -20z"/>
<path d="M21695 15261 c-191 -40 -331 -115 -461 -245 -125 -125 -201 -264
-250 -458 -22 -88 -27 -129 -29 -283 -7 -406 88 -635 420 -1009 33 -37 208
-207 389 -379 181 -172 351 -338 377 -369 144 -174 207 -369 180 -563 -21
-152 -110 -277 -240 -339 -57 -27 -77 -31 -151 -31 -105 0 -159 23 -241 105
-94 93 -174 288 -195 473 -4 32 -10 60 -14 62 -6 4 -169 -7 -305 -20 -27 -2
-103 -7 -168 -11 -65 -4 -120 -10 -123 -15 -7 -12 23 -232 45 -324 106 -441
368 -731 748 -828 77 -19 113 -22 288 -21 184 0 208 2 299 27 271 73 453 224
581 482 127 255 157 563 81 825 -102 352 -327 664 -713 991 -371 314 -517 498
-585 736 -31 109 -31 279 0 378 55 178 157 264 314 265 82 0 165 -29 217 -75
73 -67 139 -209 162 -352 6 -40 15 -73 19 -73 9 0 546 98 577 105 20 5 22 10
17 48 -32 263 -126 476 -278 635 -118 123 -255 202 -435 249 -134 35 -393 42
-526 14z"/>
<path d="M29269 15265 c-200 -38 -360 -125 -515 -279 -115 -116 -187 -224
-234 -353 -62 -174 -61 -132 -57 -1534 2 -1163 4 -1279 20 -1337 53 -196 141
-345 284 -483 105 -101 157 -138 266 -189 129 -61 220 -81 387 -87 164 -6 278
12 405 62 275 109 500 349 588 630 48 154 49 176 45 1500 -4 1365 0 1278 -67
1450 -114 297 -383 533 -692 611 -91 22 -333 27 -430 9z m276 -630 c69 -20
148 -78 189 -138 70 -102 67 -40 64 -1378 l-3 -1204 -28 -57 c-37 -76 -104
-143 -175 -176 -49 -23 -70 -27 -152 -27 -82 0 -103 4 -152 27 -73 34 -142
103 -176 176 l-27 57 0 1235 0 1235 22 48 c79 170 263 255 438 202z"/>
<path d="M31790 15260 c-195 -40 -343 -122 -496 -274 -115 -116 -187 -224
-234 -353 -62 -174 -61 -132 -57 -1534 2 -1163 4 -1279 20 -1337 53 -197 141
-345 285 -484 191 -184 375 -263 639 -275 198 -9 337 19 498 99 289 143 500
434 544 752 15 108 15 2464 0 2572 -30 217 -123 400 -288 564 -118 117 -234
191 -377 240 -148 51 -370 64 -534 30z m342 -643 c74 -36 139 -102 175 -175
l28 -57 0 -1235 0 -1235 -28 -57 c-37 -76 -104 -143 -175 -176 -49 -23 -70
-27 -152 -27 -82 0 -103 4 -152 27 -73 34 -142 103 -176 176 l-27 57 0 1235 0
1235 22 48 c67 145 189 220 348 215 64 -2 91 -9 137 -31z"/>
<path d="M16560 13140 l0 -2090 320 0 320 0 0 885 0 885 425 0 425 0 0 320 0
320 -425 0 -425 0 0 565 0 565 580 0 580 0 0 320 0 320 -900 0 -900 0 0 -2090z"/>
<path d="M18975 15218 c-3 -7 -25 -132 -49 -278 -25 -146 -99 -582 -165 -970
-66 -388 -145 -851 -175 -1030 -30 -179 -84 -496 -120 -705 -145 -846 -196
-1153 -196 -1169 0 -15 29 -16 327 -14 l327 3 8 45 c4 25 19 115 32 200 82
520 107 677 112 693 5 16 29 17 329 17 l323 0 6 -27 c3 -16 35 -221 71 -458
36 -236 68 -440 70 -452 l5 -23 330 0 c271 0 330 2 330 14 0 11 -210 1270
-578 3466 l-117 695 -433 3 c-341 2 -434 0 -437 -10z m509 -1513 c42 -292 93
-651 114 -800 l37 -270 -224 -3 c-123 -1 -226 0 -228 2 -3 3 15 150 40 328 69
495 181 1277 184 1275 1 -1 35 -241 77 -532z"/>
<path d="M23400 14910 l0 -320 335 0 335 0 0 -1770 0 -1770 315 0 315 0 0
1770 0 1770 335 0 335 0 0 320 0 320 -985 0 -985 0 0 -320z"/>
<path d="M26230 13140 l0 -2090 320 0 320 0 0 883 0 882 422 5 423 5 0 315 0
315 -425 5 c-234 3 -424 8 -422 13 1 4 2 257 2 562 l0 555 578 2 577 3 3 318
2 317 -900 0 -900 0 0 -2090z"/>
<path d="M33550 13140 l0 -2091 583 3 c567 4 584 4 662 26 334 93 597 354 702
697 l28 90 0 1270 0 1270 -23 84 c-87 319 -335 587 -639 692 -131 45 -194 49
-769 49 l-544 0 0 -2090z m1170 1405 c59 -30 135 -112 166 -179 l24 -53 0
-1184 0 -1184 -30 -61 c-45 -92 -124 -165 -210 -192 -27 -9 -374 -18 -477 -13
-10 1 -13 298 -13 1451 l0 1450 198 2 c219 3 274 -3 342 -37z"/>
<path d="M25888 9999 c-383 -30 -760 -180 -1073 -424 -99 -77 -281 -264 -356
-365 -218 -292 -348 -628 -389 -1000 -15 -138 -6 -402 18 -540 145 -818 783
-1458 1605 -1611 225 -41 531 -37 767 12 438 90 850 341 1133 692 490 605 581
1429 237 2132 -266 542 -774 940 -1363 1065 -185 39 -399 54 -579 39z m-388
-1304 l0 -125 -225 0 -225 0 0 -220 0 -220 165 0 165 0 0 -125 0 -125 -165 0
-165 0 0 -220 0 -220 23 0 c12 0 113 -1 225 -1 l202 0 0 -124 0 -125 -350 0
-350 0 0 815 0 815 350 0 350 0 0 -125z m784 108 c7 -24 266 -1579 266 -1598
0 -13 -21 -15 -128 -15 l-128 0 -27 178 c-15 97 -27 180 -27 185 0 4 -58 7
-128 7 l-128 0 -17 -102 c-9 -57 -21 -140 -28 -185 l-12 -83 -129 0 c-86 0
-128 4 -128 11 0 10 29 182 156 929 25 146 60 356 79 468 19 111 37 207 40
212 4 6 75 10 170 10 147 0 164 -2 169 -17z m1014 -110 l3 -123 -131 0 -130 0
0 -690 0 -690 -125 0 -125 0 0 690 0 690 -130 0 -130 0 0 119 c0 86 3 121 13
124 6 3 179 5 382 4 l370 -2 3 -122z"/>
<path d="M26107 8380 c-4 -14 -22 -137 -42 -275 -19 -137 -37 -262 -40 -277
l-4 -28 89 0 c50 0 90 2 90 4 0 7 -80 571 -84 586 -1 9 -5 5 -9 -10z"/>
<path d="M20551 4978 c-57 -10 -121 -48 -165 -99 -64 -76 -66 -88 -66 -524 0
-444 1 -450 76 -534 58 -65 126 -95 219 -95 117 -1 210 57 267 167 18 35 22
63 26 170 l4 127 -101 0 -101 0 0 -106 c0 -103 -1 -106 -29 -135 -41 -41 -98
-41 -143 0 l-33 29 -3 351 c-3 391 0 420 51 451 39 24 70 25 107 3 40 -23 50
-52 50 -148 l0 -85 101 0 101 0 -3 108 c-4 93 -8 115 -33 165 -30 63 -100 127
-158 146 -46 15 -115 19 -167 9z"/>
<path d="M22279 4980 c-97 -17 -182 -89 -218 -185 -21 -57 -22 -68 -19 -459 3
-394 3 -402 26 -443 58 -110 146 -165 265 -167 60 -1 82 4 129 27 32 16 75 48
97 73 56 64 71 116 71 251 l0 113 -94 0 -94 0 -4 -106 c-4 -105 -4 -106 -36
-135 -45 -41 -102 -40 -143 0 l-29 29 0 379 c0 343 2 380 18 399 38 47 88 56
139 24 38 -23 53 -67 53 -162 l0 -68 95 0 95 0 0 103 c0 91 -3 108 -28 162
-59 125 -186 189 -323 165z"/>
<path d="M27605 4981 c-89 -25 -164 -87 -201 -166 -24 -50 -24 -51 -24 -460
l0 -410 24 -50 c63 -133 213 -198 359 -156 61 18 147 94 179 159 23 47 23 48
23 457 l0 410 -24 49 c-31 63 -91 123 -148 148 -51 22 -142 32 -188 19z m131
-215 l34 -34 0 -366 c0 -398 -1 -410 -55 -434 -47 -22 -84 -15 -121 22 l-34
34 0 372 0 372 34 34 c26 26 42 34 71 34 29 0 45 -8 71 -34z"/>
<path d="M28447 4980 c-62 -16 -112 -47 -156 -96 -70 -80 -72 -96 -69 -551 3
-391 3 -399 26 -440 59 -111 147 -166 265 -166 117 1 206 53 262 154 l30 54 0
420 c0 417 0 420 -23 462 -34 65 -78 110 -135 137 -59 29 -144 40 -200 26z
m111 -194 c15 -8 33 -25 40 -38 15 -28 15 -26 13 -441 l-1 -329 -29 -29 c-53
-53 -137 -34 -167 37 -18 43 -20 692 -3 743 13 36 61 71 97 71 13 0 35 -6 50
-14z"/>
<path d="M21060 4355 l0 -615 255 0 255 0 0 95 0 95 -160 0 -160 0 0 520 0
520 -95 0 -95 0 0 -615z"/>
<path d="M21690 4355 l0 -615 95 0 95 0 0 615 0 615 -95 0 -95 0 0 -615z"/>
<path d="M22780 4355 l0 -615 95 0 95 0 0 195 c0 191 1 197 26 248 l27 51 78
-199 c43 -110 86 -221 96 -247 l17 -48 112 0 113 0 -30 73 c-17 39 -84 204
-150 365 l-120 293 126 245 c69 134 125 247 125 249 0 3 -45 4 -101 3 l-100
-3 -107 -207 -107 -207 -3 210 -2 209 -95 0 -95 0 0 -615z"/>
<path d="M23690 4355 l0 -615 95 0 95 0 0 260 0 260 110 0 110 0 0 -260 0
-260 95 0 95 0 0 615 0 615 -95 0 -95 0 0 -260 0 -260 -110 0 -110 0 0 260 0
260 -95 0 -95 0 0 -615z"/>
<path d="M24450 4355 l0 -615 265 0 265 0 0 95 0 95 -170 0 -170 0 0 165 0
165 125 0 125 0 0 95 0 95 -125 0 -125 0 0 165 0 165 170 0 170 0 0 95 0 95
-265 0 -265 0 0 -615z"/>
<path d="M25107 4963 c-4 -3 -7 -280 -7 -615 l0 -608 95 0 95 0 0 230 0 230
63 0 63 0 55 -227 54 -228 103 -3 c56 -1 102 -1 102 0 0 2 -31 123 -68 269
l-69 265 33 38 c53 61 64 109 64 281 0 188 -13 238 -75 300 -64 64 -110 75
-325 75 -97 0 -180 -3 -183 -7z m347 -193 c47 -17 58 -58 54 -197 l-3 -125
-33 -29 c-30 -27 -39 -29 -107 -29 l-75 0 0 195 0 195 69 0 c38 0 81 -4 95
-10z"/>
<path d="M25890 4355 l0 -615 265 0 265 0 0 95 0 95 -172 0 -173 0 3 165 3
164 122 3 122 3 0 90 0 90 -122 3 -123 3 0 164 0 165 170 0 170 0 0 95 0 95
-265 0 -265 0 0 -615z"/>
<path d="M26670 4875 l0 -95 100 0 100 0 0 -520 0 -520 95 0 95 0 0 520 0 520
95 0 95 0 0 95 0 95 -290 0 -290 0 0 -95z"/>
<path d="M28970 4356 l0 -616 95 0 95 0 0 230 0 230 60 0 c69 0 53 34 125
-262 l47 -198 102 0 102 0 -68 265 -67 266 34 45 c56 73 68 133 63 308 -7 202
-33 261 -139 318 -41 22 -57 23 -246 26 l-203 3 0 -615z m353 413 c39 -18 47
-43 48 -147 1 -179 2 -171 -32 -203 -29 -27 -37 -29 -105 -29 l-74 0 0 195 0
195 70 0 c38 0 80 -5 93 -11z"/>
<path d="M29750 4355 l0 -615 173 0 c200 0 241 9 311 71 25 22 57 65 73 97
l28 57 0 395 c0 445 2 430 -77 516 -24 26 -65 58 -93 70 -47 22 -62 24 -232
24 l-183 0 0 -615z m350 410 c16 -8 34 -25 41 -36 14 -27 13 -723 -2 -750 -17
-34 -57 -52 -117 -53 -31 -1 -63 0 -69 2 -10 3 -13 98 -13 428 l0 424 65 0
c39 0 78 -6 95 -15z"/>
<path d="M30500 4355 l0 -615 265 0 265 0 0 95 0 95 -170 0 -170 0 0 165 0
164 123 3 122 3 1 93 1 92 -124 0 -123 0 0 165 0 165 170 0 170 0 0 95 0 95
-265 0 -265 0 0 -615z"/>
<path d="M31150 4355 l0 -615 95 0 95 0 0 230 0 231 62 -3 63 -3 54 -227 55
-228 104 0 c102 0 103 0 96 22 -4 13 -35 133 -70 268 l-63 245 24 25 c12 14
33 45 46 70 23 42 24 55 24 225 0 173 -1 182 -26 236 -54 116 -118 139 -376
139 l-183 0 0 -615z m360 410 c38 -20 50 -64 50 -183 0 -156 -27 -192 -147
-192 l-73 0 0 195 0 195 70 0 c44 0 82 -6 100 -15z"/>
</g>
</svg>
